<?xml version="1.0" encoding="UTF-8"?>
<svg xmlns="http://www.w3.org/2000/svg" xmlns:xlink="http://www.w3.org/1999/xlink" width="495pt" height="385pt" viewBox="0 0 495 385" version="1.1">
<defs>
<filter id="alpha" filterUnits="objectBoundingBox" x="0%" y="0%" width="100%" height="100%">
  <feColorMatrix type="matrix" in="SourceGraphic" values="0 0 0 0 1 0 0 0 0 1 0 0 0 0 1 0 0 0 1 0"/>
</filter>
<mask id="mask0">
  <g filter="url(#alpha)">
<rect x="0" y="0" width="495" height="385" style="fill:rgb(0%,0%,0%);fill-opacity:0.101961;stroke:none;"/>
  </g>
</mask>
<clipPath id="clip1">
  <rect width="495" height="385"/>
</clipPath>
<g id="surface6" clip-path="url(#clip1)">
<path style=" stroke:none;fill-rule:nonzero;fill:rgb(0%,0%,0%);fill-opacity:1;" d="M 86.917969 117.15625 C 86.917969 117.15625 85.703125 129.945312 85.09375 130.554688 C 84.484375 131.164062 94.222656 142.738281 94.222656 142.738281 L 102.738281 134.820312 C 102.738281 134.820312 102.132812 123.246094 103.957031 120.808594 C 105.78125 118.375 86.917969 117.15625 86.917969 117.15625 Z M 86.917969 117.15625 "/>
</g>
<mask id="mask1">
  <g filter="url(#alpha)">
<rect x="0" y="0" width="495" height="385" style="fill:rgb(0%,0%,0%);fill-opacity:0.101961;stroke:none;"/>
  </g>
</mask>
<clipPath id="clip2">
  <rect width="495" height="385"/>
</clipPath>
<g id="surface9" clip-path="url(#clip2)">
<path style=" stroke:none;fill-rule:nonzero;fill:rgb(0%,0%,0%);fill-opacity:1;" d="M 64.101562 223.445312 L 77.488281 219.183594 L 79.3125 223.445312 L 64.707031 226.492188 Z M 64.101562 223.445312 "/>
</g>
<mask id="mask2">
  <g filter="url(#alpha)">
<rect x="0" y="0" width="495" height="385" style="fill:rgb(0%,0%,0%);fill-opacity:0.101961;stroke:none;"/>
  </g>
</mask>
<clipPath id="clip3">
  <rect width="495" height="385"/>
</clipPath>
<g id="surface12" clip-path="url(#clip3)">
<path style=" stroke:none;fill-rule:nonzero;fill:rgb(0%,0%,0%);fill-opacity:1;" d="M 82.355469 131.46875 L 92.699219 139.996094 L 93.917969 138.167969 Z M 82.355469 131.46875 "/>
</g>
<mask id="mask3">
  <g filter="url(#alpha)">
<rect x="0" y="0" width="495" height="385" style="fill:rgb(0%,0%,0%);fill-opacity:0.101961;stroke:none;"/>
  </g>
</mask>
<clipPath id="clip4">
  <rect width="495" height="385"/>
</clipPath>
<g id="surface15" clip-path="url(#clip4)">
<path style=" stroke:none;fill-rule:nonzero;fill:rgb(0%,0%,0%);fill-opacity:1;" d="M 103.042969 133.90625 L 95.742188 138.167969 L 96.351562 139.996094 Z M 103.042969 133.90625 "/>
</g>
</defs>
<g id="surface1">
<path style=" stroke:none;fill-rule:nonzero;fill:rgb(94.901961%,94.901961%,94.901961%);fill-opacity:1;" d="M 144.644531 0 L 65.796875 42.75 C 69.46875 49.078125 69.410156 56.902344 65.648438 63.171875 C 61.886719 69.445312 55.011719 73.171875 47.707031 72.898438 C 40.40625 72.628906 33.828125 68.402344 30.539062 61.867188 L 3.65625 76.445312 L 73.292969 205.140625 L 214.285156 128.695312 Z M 144.644531 0 "/>
<path style=" stroke:none;fill-rule:nonzero;fill:rgb(0%,72.54902%,55.686275%);fill-opacity:1;" d="M 63.53125 52.832031 C 63.53125 61.832031 56.242188 69.128906 47.253906 69.128906 C 38.265625 69.128906 30.976562 61.832031 30.976562 52.832031 C 30.976562 43.835938 38.265625 36.539062 47.253906 36.539062 C 56.242188 36.539062 63.53125 43.835938 63.53125 52.832031 Z M 63.53125 52.832031 "/>
<path style=" stroke:none;fill-rule:nonzero;fill:rgb(94.901961%,94.901961%,94.901961%);fill-opacity:1;" d="M 342.632812 344.53125 L 427.882812 316.695312 C 425.410156 309.8125 426.871094 302.125 431.703125 296.636719 C 436.53125 291.144531 443.964844 288.71875 451.097656 290.300781 C 458.234375 291.886719 463.945312 297.230469 466.003906 304.25 L 495.070312 294.757812 L 449.726562 155.609375 L 297.289062 205.382812 Z M 342.632812 344.53125 "/>
<path style=" stroke:none;fill-rule:nonzero;fill:rgb(0%,72.54902%,55.686275%);fill-opacity:1;" d="M 464.210938 310.121094 C 464.210938 319.121094 456.925781 326.414062 447.933594 326.414062 C 438.945312 326.414062 431.65625 319.121094 431.65625 310.121094 C 431.65625 301.125 438.945312 293.828125 447.933594 293.828125 C 456.925781 293.828125 464.210938 301.125 464.210938 310.121094 Z M 464.210938 310.121094 "/>
<path style=" stroke:none;fill-rule:nonzero;fill:rgb(24.705882%,23.921569%,33.72549%);fill-opacity:1;" d="M 57.691406 76.339844 L 451.292969 76.339844 L 451.292969 255.339844 L 57.691406 255.339844 Z M 57.691406 76.339844 "/>
<path style=" stroke:none;fill-rule:nonzero;fill:rgb(100%,100%,100%);fill-opacity:1;" d="M 64.183594 82.839844 L 444.800781 82.839844 L 444.800781 245.339844 L 64.183594 245.339844 Z M 64.183594 82.839844 "/>
<path style=" stroke:none;fill-rule:nonzero;fill:rgb(24.705882%,23.921569%,33.72549%);fill-opacity:1;" d="M 369.128906 237.589844 L 406.089844 237.589844 L 406.089844 250.089844 L 369.128906 250.089844 Z M 369.128906 237.589844 "/>
<path style=" stroke:none;fill-rule:nonzero;fill:rgb(0%,72.54902%,55.686275%);fill-opacity:1;" d="M 340.15625 247.089844 L 367.128906 247.089844 L 367.128906 250.589844 L 340.15625 250.589844 Z M 340.15625 247.089844 "/>
<path style="fill:none;stroke-width:2;stroke-linecap:butt;stroke-linejoin:miter;stroke:rgb(24.705882%,23.921569%,33.72549%);stroke-opacity:1;stroke-miterlimit:10;" d="M 190.496914 288.679688 L 481.501499 288.679688 L 526.617337 310.65625 L 598.502375 345.679688 L 645.502928 257.679688 L 778.496504 257.679688 " transform="matrix(0.499495,0,0,0.5,0,0)"/>
<path style="fill:none;stroke-width:2;stroke-linecap:butt;stroke-linejoin:miter;stroke:rgb(24.705882%,23.921569%,33.72549%);stroke-opacity:1;stroke-miterlimit:10;" d="M 304.924882 288.679688 L 326.501342 339.679688 L 379.500134 339.679688 " transform="matrix(0.499495,0,0,0.5,0,0)"/>
<path style="fill:none;stroke-width:2;stroke-linecap:butt;stroke-linejoin:miter;stroke:rgb(24.705882%,23.921569%,33.72549%);stroke-opacity:1;stroke-miterlimit:10;" d="M 385.80337 288.679688 L 459.502738 248.679688 L 511.500521 248.679688 " transform="matrix(0.499495,0,0,0.5,0,0)"/>
<path style=" stroke:none;fill-rule:nonzero;fill:rgb(0%,72.54902%,55.686275%);fill-opacity:1;" d="M 156.59375 144.339844 C 156.59375 146.824219 154.578125 148.839844 152.097656 148.839844 C 149.613281 148.839844 147.601562 146.824219 147.601562 144.339844 C 147.601562 141.855469 149.613281 139.839844 152.097656 139.839844 C 154.578125 139.839844 156.59375 141.855469 156.59375 144.339844 Z M 156.59375 144.339844 "/>
<path style=" stroke:none;fill-rule:nonzero;fill:rgb(0%,72.54902%,55.686275%);fill-opacity:1;" d="M 198.550781 144.339844 C 198.550781 146.824219 196.535156 148.839844 194.054688 148.839844 C 191.570312 148.839844 189.558594 146.824219 189.558594 144.339844 C 189.558594 141.855469 191.570312 139.839844 194.054688 139.839844 C 196.535156 139.839844 198.550781 141.855469 198.550781 144.339844 Z M 198.550781 144.339844 "/>
<path style="fill:none;stroke-width:2;stroke-linecap:butt;stroke-linejoin:miter;stroke:rgb(24.705882%,23.921569%,33.72549%);stroke-opacity:1;stroke-miterlimit:10;" d="M 526.500032 310.679688 L 532.498272 399.679688 L 584.503875 399.679688 " transform="matrix(0.499495,0,0,0.5,0,0)"/>
<path style="fill:none;stroke-width:2;stroke-linecap:butt;stroke-linejoin:miter;stroke:rgb(24.705882%,23.921569%,33.72549%);stroke-opacity:1;stroke-miterlimit:10;" d="M 626.647964 292.96875 L 569.496544 248.679688 L 623.496346 248.679688 " transform="matrix(0.499495,0,0,0.5,0,0)"/>
<path style="fill:none;stroke-width:2;stroke-linecap:butt;stroke-linejoin:miter;stroke:rgb(24.705882%,23.921569%,33.72549%);stroke-opacity:1;stroke-miterlimit:10;" d="M 721.047909 257.679688 L 776.502304 301.679688 L 828.500087 301.679688 " transform="matrix(0.499495,0,0,0.5,0,0)"/>
<path style=" stroke:none;fill-rule:nonzero;fill:rgb(0%,72.54902%,55.686275%);fill-opacity:1;" d="M 267.480469 155.339844 C 267.480469 157.824219 265.46875 159.839844 262.984375 159.839844 C 260.5 159.839844 258.488281 157.824219 258.488281 155.339844 C 258.488281 152.855469 260.5 150.839844 262.984375 150.839844 C 265.46875 150.839844 267.480469 152.855469 267.480469 155.339844 Z M 267.480469 155.339844 "/>
<path style=" stroke:none;fill-rule:nonzero;fill:rgb(0%,72.54902%,55.686275%);fill-opacity:1;" d="M 364.382812 128.839844 C 364.382812 131.324219 362.371094 133.339844 359.886719 133.339844 C 357.402344 133.339844 355.390625 131.324219 355.390625 128.839844 C 355.390625 126.355469 357.402344 124.339844 359.886719 124.339844 C 362.371094 124.339844 364.382812 126.355469 364.382812 128.839844 Z M 364.382812 128.839844 "/>
<path style=" stroke:none;fill-rule:nonzero;fill:rgb(0%,72.54902%,55.686275%);fill-opacity:1;" d="M 317.429688 146.339844 C 317.429688 148.824219 315.417969 150.839844 312.933594 150.839844 C 310.449219 150.839844 308.4375 148.824219 308.4375 146.339844 C 308.4375 143.855469 310.449219 141.839844 312.933594 141.839844 C 315.417969 141.839844 317.429688 143.855469 317.429688 146.339844 Z M 317.429688 146.339844 "/>
<path style="fill:none;stroke-width:2;stroke-linecap:butt;stroke-linejoin:miter;stroke:rgb(24.705882%,23.921569%,33.72549%);stroke-opacity:1;stroke-miterlimit:10;" d="M 327.502352 347.679688 L 379.500134 347.679688 " transform="matrix(0.499495,0,0,0.5,0,0)"/>
<path style="fill:none;stroke-width:2;stroke-linecap:butt;stroke-linejoin:miter;stroke:rgb(24.705882%,23.921569%,33.72549%);stroke-opacity:1;stroke-miterlimit:10;" d="M 615.930581 322.590818 Z M 615.930581 322.590818 " transform="matrix(0.499495,0,0,0.5,-52.162341,-32.455565)"/>
<path style="fill:none;stroke-width:2;stroke-linecap:butt;stroke-linejoin:miter;stroke:rgb(24.705882%,23.921569%,33.72549%);stroke-opacity:1;stroke-miterlimit:10;" d="M 727.926406 321.590818 Z M 727.926406 321.590818 " transform="matrix(0.499495,0,0,0.5,-52.162341,-32.455565)"/>
<path style="fill:none;stroke-width:2;stroke-linecap:butt;stroke-linejoin:miter;stroke:rgb(24.705882%,23.921569%,33.72549%);stroke-opacity:1;stroke-miterlimit:10;" d="M 727.926406 329.590818 Z M 727.926406 329.590818 " transform="matrix(0.499495,0,0,0.5,-52.162341,-32.455565)"/>
<path style="fill:none;stroke-width:2;stroke-linecap:butt;stroke-linejoin:miter;stroke:rgb(24.705882%,23.921569%,33.72549%);stroke-opacity:1;stroke-miterlimit:10;" d="M 932.930147 374.590818 Z M 932.930147 374.590818 " transform="matrix(0.499495,0,0,0.5,-52.162341,-32.455565)"/>
<path style="fill:none;stroke-width:2;stroke-linecap:butt;stroke-linejoin:miter;stroke:rgb(24.705882%,23.921569%,33.72549%);stroke-opacity:1;stroke-miterlimit:10;" d="M 913.926596 382.590818 Z M 913.926596 382.590818 " transform="matrix(0.499495,0,0,0.5,-52.162341,-32.455565)"/>
<path style="fill:none;stroke-width:2;stroke-linecap:butt;stroke-linejoin:miter;stroke:rgb(24.705882%,23.921569%,33.72549%);stroke-opacity:1;stroke-miterlimit:10;" d="M 688.933935 472.590818 Z M 688.933935 472.590818 " transform="matrix(0.499495,0,0,0.5,-52.162341,-32.455565)"/>
<path style="fill:none;stroke-width:2;stroke-linecap:butt;stroke-linejoin:miter;stroke:rgb(24.705882%,23.921569%,33.72549%);stroke-opacity:1;stroke-miterlimit:10;" d="M 824.300537 75.53125 C 824.300537 83.679688 817.692306 90.289062 809.543458 90.289062 C 801.39461 90.289062 794.786379 83.679688 794.786379 75.53125 C 794.786379 67.382812 801.39461 60.773438 809.543458 60.773438 C 817.692306 60.773438 824.300537 67.382812 824.300537 75.53125 Z M 824.300537 75.53125 " transform="matrix(0.499495,0,0,0.5,0,0)"/>
<path style=" stroke:none;fill-rule:nonzero;fill:rgb(94.901961%,94.901961%,94.901961%);fill-opacity:1;" d="M 151.847656 371.089844 C 151.847656 363.355469 117.855469 357.089844 75.921875 357.089844 C 33.992188 357.089844 0 363.355469 0 371.089844 C 0 378.820312 33.992188 385.089844 75.921875 385.089844 C 117.855469 385.089844 151.847656 378.820312 151.847656 371.089844 Z M 151.847656 371.089844 "/>
<path style=" stroke:none;fill-rule:nonzero;fill:rgb(0%,72.54902%,55.686275%);fill-opacity:1;" d="M 128.066406 246.828125 L 114.519531 253.667969 L 115.398438 255.417969 L 128.941406 248.578125 Z M 128.066406 246.828125 "/>
<path style=" stroke:none;fill-rule:nonzero;fill:rgb(98.431373%,74.509804%,74.509804%);fill-opacity:1;" d="M 125.863281 234.105469 L 125.253906 237.761719 C 125.253906 237.761719 126.167969 263.039062 119.472656 255.121094 C 112.78125 247.203125 117.34375 236.542969 117.34375 236.542969 L 119.167969 233.496094 Z M 125.863281 234.105469 "/>
<path style=" stroke:none;fill-rule:nonzero;fill:rgb(98.431373%,74.509804%,74.509804%);fill-opacity:1;" d="M 86.917969 117.15625 C 86.917969 117.15625 85.703125 129.945312 85.09375 130.554688 C 84.484375 131.164062 94.222656 142.738281 94.222656 142.738281 L 102.738281 134.820312 C 102.738281 134.820312 102.132812 123.246094 103.957031 120.808594 C 105.78125 118.375 86.917969 117.15625 86.917969 117.15625 Z M 86.917969 117.15625 "/>
<use xlink:href="#surface6" mask="url(#mask0)"/>
<path style=" stroke:none;fill-rule:nonzero;fill:rgb(24.705882%,23.921569%,33.72549%);fill-opacity:1;" d="M 64.40625 350.445312 L 64.40625 361.410156 L 60.144531 362.019531 L 54.058594 360.191406 L 55.886719 348.621094 Z M 64.40625 350.445312 "/>
<path style=" stroke:none;fill-rule:nonzero;fill:rgb(18.431373%,18.039216%,25.490196%);fill-opacity:1;" d="M 58.925781 355.929688 C 58.925781 355.929688 57.101562 351.054688 54.058594 351.664062 C 51.015625 352.273438 50.410156 355.929688 50.410156 355.929688 C 50.410156 355.929688 47.976562 365.066406 44.324219 368.113281 C 40.671875 371.15625 37.023438 379.074219 44.324219 380.292969 C 51.625 381.511719 57.710938 378.464844 57.710938 377.855469 C 57.710938 377.25 59.535156 373.59375 62.578125 372.984375 C 65.621094 372.375 68.054688 371.765625 68.054688 369.328125 C 68.054688 366.894531 66.230469 364.457031 66.230469 364.457031 C 66.230469 364.457031 65.621094 352.902344 64.402344 354.414062 C 63.5625 355.613281 62.945312 356.949219 62.578125 358.367188 Z M 58.925781 355.929688 "/>
<path style=" stroke:none;fill-rule:nonzero;fill:rgb(24.705882%,23.921569%,33.72549%);fill-opacity:1;" d="M 90.570312 344.964844 L 88.136719 354.101562 L 94.222656 355.320312 L 97.261719 352.273438 L 97.871094 344.355469 Z M 90.570312 344.964844 "/>
<path style=" stroke:none;fill-rule:nonzero;fill:rgb(18.431373%,18.039216%,25.490196%);fill-opacity:1;" d="M 89.960938 352.882812 C 89.960938 352.882812 92.394531 351.054688 93.613281 351.054688 L 95.4375 351.054688 C 95.4375 351.054688 95.4375 346.792969 98.480469 346.792969 C 101.523438 346.792969 100.914062 349.839844 100.914062 349.839844 C 100.914062 349.839844 107.609375 360.191406 109.433594 362.019531 C 111.257812 363.847656 120.996094 369.328125 113.085938 371.765625 C 105.175781 374.203125 99.699219 374.203125 96.046875 369.9375 C 96.046875 369.9375 92.394531 368.113281 89.960938 368.113281 C 87.527344 368.113281 84.484375 366.894531 84.484375 365.066406 C 84.484375 363.238281 86.308594 359.582031 86.308594 359.582031 C 86.308594 359.582031 87.527344 348.621094 88.136719 349.839844 C 88.746094 351.054688 89.960938 352.882812 89.960938 352.882812 Z M 89.960938 352.882812 "/>
<path style=" stroke:none;fill-rule:nonzero;fill:rgb(18.431373%,18.039216%,25.490196%);fill-opacity:1;" d="M 63.796875 204.867188 L 63.796875 224.96875 C 63.796875 224.96875 57.101562 263.953125 57.101562 276.742188 C 57.101562 289.535156 46.757812 350.445312 51.625 351.664062 C 56.492188 352.882812 68.054688 354.710938 68.664062 352.882812 C 69.273438 351.054688 73.53125 293.191406 74.140625 292.582031 C 74.75 291.972656 87.527344 243.851562 87.527344 243.851562 L 89.960938 244.460938 L 91.179688 299.28125 C 91.179688 299.28125 85.09375 348.621094 88.136719 348.621094 C 91.179688 348.621094 103.957031 348.011719 103.957031 344.355469 C 103.957031 340.699219 110.652344 273.089844 110.652344 273.089844 C 110.652344 273.089844 118.5625 219.488281 115.519531 214.003906 C 112.476562 208.523438 112.476562 205.476562 112.476562 205.476562 Z M 63.796875 204.867188 "/>
<path style=" stroke:none;fill-rule:nonzero;fill:rgb(98.431373%,74.509804%,74.509804%);fill-opacity:1;" d="M 109.128906 114.414062 C 109.128906 121.140625 103.679688 126.597656 96.960938 126.597656 C 90.238281 126.597656 84.789062 121.140625 84.789062 114.414062 C 84.789062 107.6875 90.238281 102.230469 96.960938 102.230469 C 103.679688 102.230469 109.128906 107.6875 109.128906 114.414062 Z M 109.128906 114.414062 "/>
<path style=" stroke:none;fill-rule:nonzero;fill:rgb(81.568627%,80.392157%,88.235294%);fill-opacity:1;" d="M 94.222656 135.429688 C 94.222656 135.429688 86.613281 129.03125 86.007812 126.597656 C 86.007812 126.597656 82.050781 130.554688 82.050781 131.164062 C 82.050781 131.773438 65.011719 133.601562 60.753906 138.472656 C 56.492188 143.347656 52.84375 153.703125 52.84375 153.703125 L 63.1875 173.195312 C 63.1875 173.195312 63.796875 184.15625 63.796875 185.375 C 63.796875 186.59375 60.753906 206.085938 61.96875 206.695312 C 63.1875 207.304688 75.355469 213.394531 85.703125 212.175781 C 96.046875 210.960938 106.390625 209.132812 109.433594 209.132812 C 112.476562 209.132812 114.910156 210.351562 114.910156 209.132812 C 114.910156 207.914062 113.085938 205.476562 113.085938 204.257812 C 113.085938 203.039062 112.476562 199.996094 112.476562 198.167969 C 112.476562 196.339844 111.257812 193.292969 111.257812 190.859375 C 111.257812 188.421875 124.644531 155.53125 124.644531 155.53125 C 124.644531 155.53125 124.039062 145.175781 114.300781 140.300781 C 104.566406 135.429688 103.347656 133.601562 103.347656 133.601562 C 103.347656 133.601562 103.160156 129.945312 102.644531 129.945312 C 102.132812 129.945312 100.304688 135.429688 95.4375 136.039062 Z M 94.222656 135.429688 "/>
<path style=" stroke:none;fill-rule:nonzero;fill:rgb(98.431373%,74.509804%,74.509804%);fill-opacity:1;" d="M 61.363281 216.441406 L 65.621094 223.140625 L 76.574219 220.703125 L 68.664062 211.570312 Z M 61.363281 216.441406 "/>
<path style=" stroke:none;fill-rule:nonzero;fill:rgb(81.568627%,80.392157%,88.235294%);fill-opacity:1;" d="M 120.996094 150.65625 L 124.644531 155.53125 C 124.644531 155.53125 131.949219 190.859375 130.730469 203.648438 C 129.515625 216.441406 128.296875 226.1875 128.296875 226.1875 C 128.296875 226.1875 130.730469 235.324219 128.90625 235.324219 C 127.078125 235.324219 116.125 235.933594 116.125 234.105469 C 116.125 232.277344 117.34375 220.707031 117.34375 220.707031 L 114.300781 193.902344 L 107.609375 184.765625 Z M 120.996094 150.65625 "/>
<path style=" stroke:none;fill-rule:nonzero;fill:rgb(18.431373%,18.039216%,25.490196%);fill-opacity:1;" d="M 88.691406 108.5 C 89.4375 108.183594 90.300781 108.441406 91.101562 108.304688 C 92.039062 108.148438 92.878906 107.449219 93.824219 107.539062 C 94.273438 107.621094 94.710938 107.761719 95.121094 107.960938 C 95.539062 108.15625 96.019531 108.175781 96.453125 108.007812 C 96.65625 107.914062 96.808594 107.730469 96.867188 107.507812 C 96.921875 107.289062 96.875 107.054688 96.742188 106.871094 C 97.542969 106.800781 98.300781 106.476562 98.902344 105.941406 C 99.023438 105.816406 99.160156 105.710938 99.316406 105.632812 C 99.675781 105.535156 100.058594 105.597656 100.375 105.796875 L 101.765625 106.4375 C 102.082031 106.550781 102.355469 106.746094 102.5625 107.007812 C 102.730469 107.265625 102.761719 107.613281 102.996094 107.8125 C 103.296875 108.066406 103.742188 107.941406 104.132812 107.964844 C 104.867188 108.039062 105.433594 108.648438 105.445312 109.386719 C 105.441406 109.796875 105.292969 110.296875 105.617188 110.546875 C 105.804688 110.691406 106.070312 110.667969 106.289062 110.757812 C 106.859375 110.988281 106.859375 111.78125 106.777344 112.390625 C 106.691406 113 106.734375 113.804688 107.320312 113.992188 C 107.730469 114.125 108.152344 113.84375 108.578125 113.78125 C 109.226562 113.683594 109.824219 114.089844 110.398438 114.398438 C 110.972656 114.707031 111.734375 114.917969 112.234375 114.496094 C 112.695312 114.101562 112.667969 113.382812 112.539062 112.789062 C 112.355469 111.9375 112.054688 111.117188 111.648438 110.347656 C 111.496094 110.121094 111.40625 109.859375 111.386719 109.585938 C 111.457031 109.199219 111.691406 108.859375 112.027344 108.65625 C 112.730469 108.097656 113.539062 107.539062 113.769531 106.667969 C 113.9375 106.03125 113.746094 105.359375 113.761719 104.699219 C 113.78125 103.894531 114.097656 103.097656 113.949219 102.308594 C 113.679688 100.878906 112.089844 100.191406 111.0625 99.160156 C 109.65625 97.746094 109.195312 95.480469 107.535156 94.375 C 106.203125 93.492188 104.460938 93.597656 102.949219 93.089844 C 101.28125 92.535156 99.941406 91.257812 98.300781 90.636719 C 96.488281 89.96875 94.46875 90.144531 92.796875 91.121094 C 92.308594 91.484375 91.761719 91.761719 91.179688 91.949219 C 90.691406 92.003906 90.195312 92 89.707031 91.929688 C 88.734375 91.878906 87.769531 92.082031 86.898438 92.511719 C 86.5625 92.644531 86.285156 92.886719 86.109375 93.203125 C 85.816406 93.855469 86.242188 94.875 85.597656 95.1875 C 85.300781 95.335938 84.945312 95.195312 84.609375 95.203125 C 83.960938 95.21875 83.460938 95.78125 83.152344 96.355469 C 82.914062 96.957031 82.566406 97.515625 82.132812 98 C 81.339844 98.695312 79.898438 98.808594 79.691406 99.84375 C 79.6875 100.28125 79.710938 100.71875 79.765625 101.15625 C 79.703125 102.074219 78.722656 102.769531 78.777344 103.6875 C 78.835938 104.746094 80.179688 105.261719 80.539062 106.261719 C 80.8125 107.019531 80.449219 107.839844 80.203125 108.609375 C 79.957031 109.378906 79.882812 110.363281 80.519531 110.855469 C 80.769531 111.046875 81.09375 111.125 81.347656 111.3125 C 82.011719 111.792969 82.003906 112.765625 81.929688 113.582031 C 81.84375 113.925781 81.933594 114.292969 82.167969 114.554688 C 82.390625 114.6875 82.660156 114.722656 82.90625 114.644531 C 83.707031 114.449219 84.394531 113.929688 84.804688 113.210938 C 85.019531 112.859375 85.0625 112.546875 85.449219 112.363281 C 85.710938 112.234375 86.03125 112.347656 86.296875 112.183594 C 87.570312 111.398438 87.132812 109.164062 88.691406 108.5 Z M 88.691406 108.5 "/>
<path style=" stroke:none;fill-rule:nonzero;fill:rgb(81.568627%,80.392157%,88.235294%);fill-opacity:1;" d="M 54.667969 151.875 L 52.84375 153.703125 C 52.84375 153.703125 41.890625 186.59375 45.539062 193.902344 C 49.191406 201.214844 56.492188 219.488281 58.925781 218.878906 C 61.363281 218.269531 69.878906 212.785156 69.878906 212.175781 C 69.878906 211.566406 59.535156 194.511719 59.535156 194.511719 C 59.535156 194.511719 58.320312 190.859375 58.925781 190.25 C 59.535156 189.640625 59.535156 190.25 58.925781 189.03125 C 58.320312 187.8125 58.320312 189.03125 59.535156 187.8125 C 60.753906 186.59375 60.753906 186.59375 60.753906 185.984375 C 60.753906 185.375 64.402344 170.148438 64.402344 170.148438 Z M 54.667969 151.875 "/>
<path style=" stroke:none;fill-rule:nonzero;fill:rgb(18.431373%,18.039216%,25.490196%);fill-opacity:1;" d="M 64.101562 223.445312 L 77.488281 219.183594 L 79.3125 223.445312 L 64.707031 226.492188 Z M 64.101562 223.445312 "/>
<use xlink:href="#surface9" mask="url(#mask1)"/>
<use xlink:href="#surface12" mask="url(#mask2)"/>
<use xlink:href="#surface15" mask="url(#mask3)"/>
</g>
</svg>
