<?xml version="1.0" encoding="UTF-8"?>
<svg xmlns="http://www.w3.org/2000/svg" xmlns:xlink="http://www.w3.org/1999/xlink" width="539pt" height="377pt" viewBox="0 0 539 377" version="1.1">
<defs>
<filter id="alpha" filterUnits="objectBoundingBox" x="0%" y="0%" width="100%" height="100%">
  <feColorMatrix type="matrix" in="SourceGraphic" values="0 0 0 0 1 0 0 0 0 1 0 0 0 0 1 0 0 0 1 0"/>
</filter>
<mask id="mask0">
  <g filter="url(#alpha)">
<rect x="0" y="0" width="539" height="377" style="fill:rgb(0%,0%,0%);fill-opacity:0.101961;stroke:none;"/>
  </g>
</mask>
<clipPath id="clip1">
  <rect width="539" height="377"/>
</clipPath>
<g id="surface6" clip-path="url(#clip1)">
<path style=" stroke:none;fill-rule:nonzero;fill:rgb(0%,0%,0%);fill-opacity:1;" d="M 468.527344 60.898438 C 468.527344 60.898438 470.957031 77.894531 460.554688 81.707031 C 450.152344 85.523438 453.96875 90.726562 453.96875 90.726562 L 469.570312 98.359375 L 486.210938 93.15625 L 491.757812 84.832031 C 491.757812 84.832031 482.746094 82.75 485.171875 76.503906 C 487.597656 70.261719 488.292969 68.179688 488.292969 68.179688 Z M 468.527344 60.898438 "/>
</g>
<mask id="mask1">
  <g filter="url(#alpha)">
<rect x="0" y="0" width="539" height="377" style="fill:rgb(0%,0%,0%);fill-opacity:0.101961;stroke:none;"/>
  </g>
</mask>
<clipPath id="clip2">
  <rect width="539" height="377"/>
</clipPath>
<g id="surface9" clip-path="url(#clip2)">
<path style=" stroke:none;fill-rule:nonzero;fill:rgb(0%,0%,0%);fill-opacity:1;" d="M 512.214844 109.457031 C 512.214844 109.457031 509.789062 141.367188 510.480469 142.753906 C 511.175781 144.140625 510.480469 192.355469 510.480469 192.355469 C 510.480469 192.355469 515.335938 218.371094 509.09375 219.757812 C 502.855469 221.144531 504.242188 190.621094 504.242188 190.621094 L 498 150.386719 L 498.695312 110.496094 Z M 512.214844 109.457031 "/>
</g>
<mask id="mask2">
  <g filter="url(#alpha)">
<rect x="0" y="0" width="539" height="377" style="fill:rgb(0%,0%,0%);fill-opacity:0.301961;stroke:none;"/>
  </g>
</mask>
<clipPath id="clip3">
  <rect width="539" height="377"/>
</clipPath>
<g id="surface12" clip-path="url(#clip3)">
<path style=" stroke:none;fill-rule:nonzero;fill:rgb(24.705882%,23.921569%,33.72549%);fill-opacity:1;" d="M 360.640625 25.703125 L 360.640625 24.703125 L 104.28125 24.703125 L 104.28125 0 L 103.28125 0 L 103.28125 24.703125 L 69.871094 24.703125 L 69.871094 25.703125 L 103.28125 25.703125 L 103.28125 49.066406 L 69.871094 49.066406 L 69.871094 50.066406 L 103.28125 50.066406 L 103.28125 73.429688 L 69.871094 73.429688 L 69.871094 74.429688 L 103.28125 74.429688 L 103.28125 97.792969 L 69.871094 97.792969 L 69.871094 98.792969 L 103.28125 98.792969 L 103.28125 122.152344 L 69.871094 122.152344 L 69.871094 123.15625 L 103.28125 123.15625 L 103.28125 146.515625 L 69.871094 146.515625 L 69.871094 147.519531 L 103.28125 147.519531 L 103.28125 170.878906 L 69.871094 170.878906 L 69.871094 171.882812 L 103.28125 171.882812 L 103.28125 195.242188 L 69.871094 195.242188 L 69.871094 196.246094 L 103.28125 196.246094 L 103.28125 219.605469 L 69.871094 219.605469 L 69.871094 220.609375 L 103.28125 220.609375 L 103.28125 243.96875 L 69.871094 243.96875 L 69.871094 244.96875 L 103.28125 244.96875 L 103.28125 268.332031 L 69.871094 268.332031 L 69.871094 269.332031 L 103.28125 269.332031 L 103.28125 292.695312 L 69.871094 292.695312 L 69.871094 293.695312 L 103.28125 293.695312 L 103.28125 317.058594 L 69.871094 317.058594 L 69.871094 318.058594 L 103.28125 318.058594 L 103.28125 338.449219 L 104.28125 338.449219 L 104.28125 318.058594 L 360.640625 318.058594 L 360.640625 317.058594 L 104.28125 317.058594 L 104.28125 293.695312 L 360.640625 293.695312 L 360.640625 292.695312 L 104.28125 292.695312 L 104.28125 269.332031 L 360.640625 269.332031 L 360.640625 268.332031 L 104.28125 268.332031 L 104.28125 244.96875 L 360.640625 244.96875 L 360.640625 243.96875 L 104.28125 243.96875 L 104.28125 220.609375 L 360.640625 220.609375 L 360.640625 219.605469 L 104.28125 219.605469 L 104.28125 196.246094 L 360.640625 196.246094 L 360.640625 195.242188 L 104.28125 195.242188 L 104.28125 171.882812 L 360.640625 171.882812 L 360.640625 170.878906 L 104.28125 170.878906 L 104.28125 147.519531 L 360.640625 147.519531 L 360.640625 146.515625 L 104.28125 146.515625 L 104.28125 123.15625 L 360.640625 123.15625 L 360.640625 122.152344 L 104.28125 122.152344 L 104.28125 98.792969 L 360.640625 98.792969 L 360.640625 97.792969 L 104.28125 97.792969 L 104.28125 74.429688 L 360.640625 74.429688 L 360.640625 73.429688 L 104.28125 73.429688 L 104.28125 50.066406 L 360.640625 50.066406 L 360.640625 49.066406 L 104.28125 49.066406 L 104.28125 25.703125 Z M 360.640625 25.703125 "/>
</g>
</defs>
<g id="surface1">
<path style=" stroke:none;fill-rule:nonzero;fill:rgb(24.705882%,23.921569%,33.72549%);fill-opacity:1;" d="M 455.421875 341.382812 C 455.421875 335.023438 353.472656 329.867188 227.710938 329.867188 C 101.949219 329.867188 0 335.023438 0 341.382812 C 0 347.742188 101.949219 352.898438 227.710938 352.898438 C 353.472656 352.898438 455.421875 347.742188 455.421875 341.382812 Z M 455.421875 341.382812 "/>
<path style=" stroke:none;fill-rule:nonzero;fill:rgb(24.705882%,23.921569%,33.72549%);fill-opacity:1;" d="M 539.191406 360.980469 C 539.191406 358.488281 499.296875 356.472656 450.085938 356.472656 C 400.875 356.472656 360.980469 358.488281 360.980469 360.980469 C 360.980469 363.46875 400.875 365.484375 450.085938 365.484375 C 499.296875 365.484375 539.191406 363.46875 539.191406 360.980469 Z M 539.191406 360.980469 "/>
<path style=" stroke:none;fill-rule:nonzero;fill:rgb(24.705882%,23.921569%,33.72549%);fill-opacity:1;" d="M 287.316406 372.425781 C 287.316406 369.9375 247.421875 367.917969 198.210938 367.917969 C 149 367.917969 109.105469 369.9375 109.105469 372.425781 C 109.105469 374.914062 149 376.929688 198.210938 376.929688 C 247.421875 376.929688 287.316406 374.914062 287.316406 372.425781 Z M 287.316406 372.425781 "/>
<path style=" stroke:none;fill-rule:nonzero;fill:rgb(18.431373%,18.039216%,25.490196%);fill-opacity:1;" d="M 416.925781 237.03125 L 424.921875 231.472656 L 441.492188 210.132812 C 442.476562 208.867188 442.246094 207.042969 440.980469 206.058594 C 439.714844 205.074219 437.890625 205.300781 436.90625 206.570312 L 420.335938 227.90625 Z M 416.925781 237.03125 "/>
<path style=" stroke:none;fill-rule:nonzero;fill:rgb(18.431373%,18.039216%,25.490196%);fill-opacity:1;" d="M 488.292969 34.1875 C 488.292969 34.1875 478.238281 25.171875 464.714844 42.167969 C 451.191406 59.164062 430.042969 67.488281 425.191406 74.078125 C 425.191406 74.078125 445.300781 65.753906 452.234375 62.285156 C 459.167969 58.816406 458.820312 59.507812 458.820312 59.507812 C 458.820312 59.507812 449.460938 66.101562 447.726562 72.691406 C 445.992188 79.28125 447.378906 84.832031 444.257812 91.421875 C 441.136719 98.011719 503.894531 95.929688 503.894531 95.929688 C 503.894531 95.929688 510.136719 85.175781 508.402344 74.078125 C 506.667969 62.976562 507.707031 35.578125 488.292969 34.1875 Z M 488.292969 34.1875 "/>
<path style=" stroke:none;fill-rule:nonzero;fill:rgb(100%,72.54902%,72.54902%);fill-opacity:1;" d="M 468.527344 60.898438 C 468.527344 60.898438 470.957031 77.894531 460.554688 81.707031 C 450.152344 85.523438 453.96875 90.726562 453.96875 90.726562 L 469.570312 98.359375 L 486.210938 93.15625 L 491.757812 84.832031 C 491.757812 84.832031 482.746094 82.75 485.171875 76.503906 C 487.597656 70.261719 488.292969 68.179688 488.292969 68.179688 Z M 468.527344 60.898438 "/>
<use xlink:href="#surface6" mask="url(#mask0)"/>
<path style=" stroke:none;fill-rule:nonzero;fill:rgb(100%,72.54902%,72.54902%);fill-opacity:1;" d="M 512.214844 109.457031 C 512.214844 109.457031 509.789062 141.367188 510.480469 142.753906 C 511.175781 144.140625 510.480469 192.355469 510.480469 192.355469 C 510.480469 192.355469 515.335938 218.371094 509.09375 219.757812 C 502.855469 221.144531 504.242188 190.621094 504.242188 190.621094 L 498 150.386719 L 498.695312 110.496094 Z M 512.214844 109.457031 "/>
<use xlink:href="#surface9" mask="url(#mask1)"/>
<path style=" stroke:none;fill-rule:nonzero;fill:rgb(100%,72.54902%,72.54902%);fill-opacity:1;" d="M 444.605469 205.535156 C 444.605469 205.535156 433.164062 248.894531 433.511719 270.050781 C 433.859375 291.210938 438.363281 320.691406 438.363281 320.691406 C 438.363281 320.691406 439.058594 333.527344 438.019531 334.914062 C 436.976562 336.300781 443.21875 342.195312 443.21875 342.195312 L 449.804688 338.382812 L 452.234375 335.605469 L 452.234375 333.179688 C 452.234375 333.179688 448.417969 321.386719 451.539062 312.019531 C 454.660156 302.65625 456.394531 279.070312 453.273438 271.785156 L 474.769531 207.964844 Z M 444.605469 205.535156 "/>
<path style=" stroke:none;fill-rule:nonzero;fill:rgb(18.431373%,18.039216%,25.490196%);fill-opacity:1;" d="M 443.914062 336.648438 C 443.914062 336.648438 439.75 331.445312 436.976562 333.179688 C 434.203125 334.914062 429.695312 346.707031 429.695312 346.707031 C 429.695312 346.707031 414.09375 361.621094 425.191406 362.316406 C 436.285156 363.007812 441.136719 359.191406 442.527344 356.417969 C 443.914062 353.644531 456.742188 346.359375 456.742188 346.359375 C 456.742188 346.359375 455.355469 333.179688 453.273438 332.832031 C 451.191406 332.484375 448.074219 338.035156 448.074219 338.035156 Z M 443.914062 336.648438 "/>
<path style=" stroke:none;fill-rule:nonzero;fill:rgb(100%,72.54902%,72.54902%);fill-opacity:1;" d="M 482.398438 208.3125 L 482.398438 251.320312 C 482.4375 256.539062 482.785156 261.75 483.4375 266.929688 C 484.476562 274.558594 477.542969 331.445312 477.542969 331.445312 L 478.238281 341.503906 L 486.90625 340.808594 L 487.945312 332.136719 L 500.425781 293.984375 C 500.425781 293.984375 504.585938 270.746094 502.507812 262.074219 C 500.425781 253.402344 513.253906 197.90625 513.253906 197.90625 Z M 482.398438 208.3125 "/>
<path style=" stroke:none;fill-rule:nonzero;fill:rgb(18.431373%,18.039216%,25.490196%);fill-opacity:1;" d="M 475.464844 339.074219 L 478.03125 338.515625 C 478.03125 338.515625 479.972656 334.21875 482.398438 335.261719 C 484.105469 336.046875 485.722656 337.019531 487.222656 338.152344 L 488.292969 340.117188 C 488.292969 340.117188 490.71875 345.320312 493.839844 348.789062 C 496.960938 352.253906 500.425781 359.886719 495.226562 360.582031 C 490.027344 361.273438 483.089844 361.621094 481.011719 359.886719 C 478.929688 358.152344 480.316406 355.378906 478.238281 354.683594 C 476.15625 353.988281 474.421875 351.910156 474.769531 351.214844 C 475.117188 350.519531 475.464844 339.074219 475.464844 339.074219 Z M 475.464844 339.074219 "/>
<path style=" stroke:none;fill-rule:nonzero;fill:rgb(100%,72.54902%,72.54902%);fill-opacity:1;" d="M 499.039062 57.429688 C 499.039062 66.625 491.589844 74.078125 482.398438 74.078125 C 473.207031 74.078125 465.753906 66.625 465.753906 57.429688 C 465.753906 48.234375 473.207031 40.78125 482.398438 40.78125 C 491.589844 40.78125 499.039062 48.234375 499.039062 57.429688 Z M 499.039062 57.429688 "/>
<path style=" stroke:none;fill-rule:nonzero;fill:rgb(0%,72.54902%,55.686275%);fill-opacity:1;" d="M 453.273438 84.484375 L 457.851562 82.882812 C 457.851562 82.882812 456.046875 85.871094 465.753906 87.605469 C 475.464844 89.339844 485.515625 89.953125 490.023438 84.269531 C 490.023438 84.269531 491.757812 83.441406 494.1875 85.871094 C 496.613281 88.296875 498 87.605469 498 87.605469 L 496.265625 96.625 L 492.800781 113.273438 L 488.292969 125.757812 L 475.464844 122.984375 L 461.59375 112.925781 L 456.394531 99.398438 L 456.394531 86.910156 Z M 453.273438 84.484375 "/>
<path style=" stroke:none;fill-rule:nonzero;fill:rgb(0%,72.54902%,55.686275%);fill-opacity:1;" d="M 495.574219 89.339844 L 499.039062 86.910156 C 499.039062 86.910156 510.828125 88.992188 511.523438 94.542969 L 502.507812 111.886719 C 504.347656 116.710938 504.222656 122.066406 502.160156 126.800781 C 498.695312 134.777344 499.039062 136.511719 499.039062 136.511719 L 496.613281 146.917969 L 452.582031 150.386719 C 452.582031 150.386719 450.847656 146.222656 450.152344 145.53125 C 449.460938 144.835938 449.460938 142.410156 450.152344 142.410156 C 450.847656 142.410156 450.152344 141.367188 449.460938 140.328125 C 448.765625 139.285156 448.417969 138.941406 449.460938 137.550781 C 450.5 136.164062 447.726562 123.679688 447.726562 123.679688 L 447.726562 110.152344 L 435.9375 94.542969 C 435.9375 94.542969 440.097656 88.296875 442.179688 87.605469 C 444.257812 86.910156 454.15625 84.175781 454.15625 84.175781 L 456.394531 87.472656 L 459.515625 112.578125 L 464.023438 127.839844 L 483 124.613281 L 490.371094 112.230469 L 495.226562 97.664062 Z M 495.574219 89.339844 "/>
<path style=" stroke:none;fill-rule:nonzero;fill:rgb(0%,72.54902%,55.686275%);fill-opacity:1;" d="M 508.75 92.460938 L 511.523438 94.542969 C 511.523438 94.542969 513.949219 113.964844 513.253906 115.351562 C 512.5625 116.742188 500.425781 118.128906 500.082031 117.433594 C 499.734375 116.742188 508.75 92.460938 508.75 92.460938 Z M 508.75 92.460938 "/>
<path style=" stroke:none;fill-rule:nonzero;fill:rgb(100%,72.54902%,72.54902%);fill-opacity:1;" d="M 433.511719 113.621094 C 433.511719 113.621094 435.9375 145.53125 435.246094 146.917969 C 434.550781 148.304688 435.246094 196.519531 435.246094 196.519531 C 435.246094 196.519531 430.390625 222.53125 436.632812 223.917969 C 442.871094 225.308594 441.484375 194.785156 441.484375 194.785156 L 447.726562 154.546875 L 447.03125 114.660156 Z M 433.511719 113.621094 "/>
<path style=" stroke:none;fill-rule:nonzero;fill:rgb(18.431373%,18.039216%,25.490196%);fill-opacity:1;" d="M 451.539062 82.75 L 455.007812 105.640625 C 455.007812 105.640625 451.886719 139.632812 452.582031 146.570312 L 453.273438 148.652344 C 453.273438 148.652344 451.886719 147.957031 451.539062 149.34375 C 451.191406 150.734375 451.539062 155.242188 451.539062 155.242188 C 451.539062 155.242188 449.460938 157.324219 448.765625 168.769531 C 448.074219 180.214844 439.75 207.617188 442.871094 208.65625 C 445.992188 209.699219 464.714844 214.902344 474.769531 213.859375 C 484.824219 212.820312 520.882812 200.679688 520.535156 197.558594 C 520.191406 194.4375 502.855469 150.386719 502.855469 150.386719 C 502.855469 150.386719 499.734375 145.183594 499.734375 144.488281 C 499.734375 143.796875 503.894531 141.019531 502.855469 138.246094 C 501.8125 135.472656 496.265625 106.335938 496.265625 106.335938 L 500.082031 85.523438 L 494.878906 84.136719 L 491.066406 104.253906 C 491.066406 104.253906 476.15625 111.539062 460.554688 104.949219 L 457.085938 81.363281 Z M 451.539062 82.75 "/>
<path style=" stroke:none;fill-rule:nonzero;fill:rgb(0%,72.54902%,55.686275%);fill-opacity:1;" d="M 438.710938 93.5 L 435.9375 94.542969 C 435.9375 94.542969 430.738281 116.394531 432.125 116.394531 C 433.511719 116.394531 450.152344 118.476562 450.152344 117.78125 C 450.152344 117.085938 447.03125 100.09375 447.03125 100.09375 Z M 438.710938 93.5 "/>
<path style=" stroke:none;fill-rule:nonzero;fill:rgb(18.431373%,18.039216%,25.490196%);fill-opacity:1;" d="M 469.222656 42.859375 C 469.222656 42.859375 494.878906 60.550781 501.8125 52.574219 C 508.75 44.59375 489.679688 37.65625 489.679688 37.65625 L 473.730469 35.921875 Z M 469.222656 42.859375 "/>
<path style=" stroke:none;fill-rule:nonzero;fill:rgb(94.901961%,94.901961%,94.901961%);fill-opacity:1;" d="M 69.871094 0 L 69.871094 338.449219 L 360.640625 338.449219 L 360.640625 0 Z M 85.386719 310.410156 C 82.621094 310.410156 80.382812 308.171875 80.382812 305.40625 C 80.382812 302.640625 82.621094 300.398438 85.386719 300.398438 C 88.148438 300.398438 90.390625 302.640625 90.390625 305.40625 C 90.390625 308.171875 88.148438 310.410156 85.386719 310.410156 Z M 85.386719 285.878906 C 82.621094 285.878906 80.382812 283.636719 80.382812 280.871094 C 80.382812 278.105469 82.621094 275.867188 85.386719 275.867188 C 88.148438 275.867188 90.390625 278.105469 90.390625 280.871094 C 90.390625 283.636719 88.148438 285.878906 85.386719 285.878906 Z M 85.386719 261.847656 C 82.621094 261.847656 80.382812 259.605469 80.382812 256.839844 C 80.382812 254.074219 82.621094 251.835938 85.386719 251.835938 C 88.148438 251.835938 90.390625 254.074219 90.390625 256.839844 C 90.390625 259.605469 88.148438 261.847656 85.386719 261.847656 Z M 85.386719 237.316406 C 82.621094 237.316406 80.382812 235.074219 80.382812 232.308594 C 80.382812 229.542969 82.621094 227.300781 85.386719 227.300781 C 88.148438 227.300781 90.390625 229.542969 90.390625 232.308594 C 90.390625 235.074219 88.148438 237.316406 85.386719 237.316406 Z M 85.386719 212.78125 C 82.621094 212.78125 80.382812 210.539062 80.382812 207.777344 C 80.382812 205.011719 82.621094 202.769531 85.386719 202.769531 C 88.148438 202.769531 90.390625 205.011719 90.390625 207.777344 C 90.390625 210.539062 88.148438 212.78125 85.386719 212.78125 Z M 85.386719 188.75 C 82.621094 188.75 80.382812 186.507812 80.382812 183.742188 C 80.382812 180.980469 82.621094 178.738281 85.386719 178.738281 C 88.148438 178.738281 90.390625 180.980469 90.390625 183.742188 C 90.390625 186.507812 88.148438 188.75 85.386719 188.75 Z M 85.386719 164.21875 C 82.621094 164.21875 80.382812 161.976562 80.382812 159.210938 C 80.382812 156.445312 82.621094 154.203125 85.386719 154.203125 C 88.148438 154.203125 90.390625 156.445312 90.390625 159.210938 C 90.390625 161.976562 88.148438 164.21875 85.386719 164.21875 Z M 85.386719 139.683594 C 82.621094 139.683594 80.382812 137.445312 80.382812 134.679688 C 80.382812 131.914062 82.621094 129.671875 85.386719 129.671875 C 88.148438 129.671875 90.390625 131.914062 90.390625 134.679688 C 90.390625 137.445312 88.148438 139.683594 85.386719 139.683594 Z M 85.386719 115.652344 C 82.621094 115.652344 80.382812 113.410156 80.382812 110.648438 C 80.382812 107.882812 82.621094 105.640625 85.386719 105.640625 C 88.148438 105.640625 90.390625 107.882812 90.390625 110.648438 C 90.390625 113.410156 88.148438 115.652344 85.386719 115.652344 Z M 85.386719 91.121094 C 82.621094 91.121094 80.382812 88.878906 80.382812 86.113281 C 80.382812 83.347656 82.621094 81.109375 85.386719 81.109375 C 88.148438 81.109375 90.390625 83.347656 90.390625 86.113281 C 90.390625 88.878906 88.148438 91.121094 85.386719 91.121094 Z M 85.386719 66.589844 C 82.621094 66.589844 80.382812 64.347656 80.382812 61.582031 C 80.382812 58.816406 82.621094 56.574219 85.386719 56.574219 C 88.148438 56.574219 90.390625 58.816406 90.390625 61.582031 C 90.390625 64.347656 88.148438 66.589844 85.386719 66.589844 Z M 85.386719 43.058594 C 82.621094 43.058594 80.382812 40.816406 80.382812 38.050781 C 80.382812 35.285156 82.621094 33.042969 85.386719 33.042969 C 88.148438 33.042969 90.390625 35.285156 90.390625 38.050781 C 90.390625 40.816406 88.148438 43.058594 85.386719 43.058594 Z M 85.386719 43.058594 "/>
<use xlink:href="#surface12" mask="url(#mask2)"/>
<path style="fill:none;stroke-width:2;stroke-linecap:butt;stroke-linejoin:miter;stroke:rgb(24.705882%,23.921569%,33.72549%);stroke-opacity:1;stroke-miterlimit:10;" d="M 330.70736 246.745568 C 324.666094 251.426851 318.172124 255.499568 311.326917 258.893498 C 306.909144 261.093701 301.99964 263.044236 297.144773 262.123583 C 292.297711 261.202931 287.934575 256.240771 289.417573 251.536081 C 290.463476 248.735114 292.922131 246.706558 295.872517 246.207221 C 298.783876 245.762499 301.765482 246.191616 304.427074 247.439959 C 309.313162 249.530932 313.387504 253.151124 316.049095 257.754386 C 317.407209 260.110632 318.468723 262.817974 320.716636 264.347193 C 322.527455 265.377075 324.564626 265.970038 326.648628 266.063663 C 331.550327 266.680032 336.584715 267.288599 341.384946 266.126081 C 346.192981 264.963562 350.790275 261.639851 352.0157 256.85714 " transform="matrix(0.500464,0,0,0.500664,-30.682993,-36.833501)"/>
<path style="fill:none;stroke-width:2;stroke-linecap:butt;stroke-linejoin:miter;stroke:rgb(24.705882%,23.921569%,33.72549%);stroke-opacity:1;stroke-miterlimit:10;" d="M 367.774505 223.932115 C 368.149157 238.623542 367.946221 253.307167 367.15789 267.990792 L 377.577903 266.024653 C 381.418087 265.299054 385.789029 264.19115 387.5296 260.68799 C 389.145287 257.418894 387.607653 253.299365 384.907035 250.841691 C 382.214223 248.391819 378.623807 247.221499 375.150469 246.113595 L 369.46044 244.303499 " transform="matrix(0.500464,0,0,0.500664,-30.682993,-36.833501)"/>
<path style="fill:none;stroke-width:2;stroke-linecap:butt;stroke-linejoin:miter;stroke:rgb(24.705882%,23.921569%,33.72549%);stroke-opacity:1;stroke-miterlimit:10;" d="M 423.94891 240.129355 C 420.139946 239.598809 416.260736 239.09167 412.475188 239.770456 C 408.697446 240.449242 404.966535 242.509007 403.218158 245.934146 C 400.002394 252.253878 404.935314 260.040412 411.187321 263.395332 C 416.393425 266.165091 422.387859 267.070139 428.179357 265.954433 " transform="matrix(0.500464,0,0,0.500664,-30.682993,-36.833501)"/>
<path style=" stroke:none;fill-rule:nonzero;fill:rgb(0%,72.54902%,55.686275%);fill-opacity:1;" d="M 139.613281 58.203125 C 134.824219 62.707031 130.035156 62.707031 125.246094 58.203125 C 121.320312 54.433594 119.121094 49.210938 119.167969 43.765625 L 119.167969 0 L 145.691406 0 L 145.691406 43.765625 C 145.738281 49.210938 143.539062 54.433594 139.613281 58.203125 Z M 139.613281 58.203125 "/>
<path style=" stroke:none;fill-rule:nonzero;fill:rgb(0%,72.54902%,55.686275%);fill-opacity:1;" d="M 287.921875 213.648438 C 287.921875 254.617188 263.582031 268.921875 233.546875 268.921875 C 232.851562 268.921875 232.15625 268.910156 231.464844 268.898438 C 230.074219 268.867188 228.695312 268.800781 227.332031 268.707031 C 200.226562 266.789062 179.171875 251.75 179.171875 213.648438 C 179.171875 174.226562 229.527344 124.476562 233.324219 120.785156 C 233.324219 120.785156 233.324219 120.78125 233.324219 120.78125 C 233.324219 120.78125 233.328125 120.78125 233.328125 120.78125 C 233.472656 120.636719 233.546875 120.566406 233.546875 120.566406 C 233.546875 120.566406 287.921875 172.683594 287.921875 213.648438 Z M 287.921875 213.648438 "/>
<path style=" stroke:none;fill-rule:nonzero;fill:rgb(24.705882%,23.921569%,33.72549%);fill-opacity:1;" d="M 231.566406 262.652344 L 251.453125 234.855469 L 231.515625 265.707031 L 231.464844 268.898438 C 230.074219 268.867188 228.695312 268.800781 227.332031 268.707031 L 229.472656 227.722656 L 229.460938 227.402344 L 229.496094 227.347656 L 229.699219 223.472656 L 209.710938 192.546875 L 229.757812 220.566406 L 229.808594 221.386719 L 231.425781 190.421875 L 214.316406 158.464844 L 231.636719 184.992188 L 233.324219 120.785156 L 233.328125 120.566406 L 233.328125 120.78125 L 233.046875 171.40625 L 250.082031 151.335938 L 232.976562 175.769531 L 232.527344 203.496094 L 248.4375 176.882812 L 232.460938 207.574219 L 232.210938 222.992188 L 255.296875 185.953125 L 232.121094 228.367188 Z M 231.566406 262.652344 "/>
</g>
</svg>
