<?xml version="1.0" encoding="UTF-8"?>
<svg xmlns="http://www.w3.org/2000/svg" xmlns:xlink="http://www.w3.org/1999/xlink" width="327pt" height="341pt" viewBox="0 0 327 341" version="1.1">
<defs>
<filter id="alpha" filterUnits="objectBoundingBox" x="0%" y="0%" width="100%" height="100%">
  <feColorMatrix type="matrix" in="SourceGraphic" values="0 0 0 0 1 0 0 0 0 1 0 0 0 0 1 0 0 0 1 0"/>
</filter>
<mask id="mask0">
  <g filter="url(#alpha)">
<rect x="0" y="0" width="327" height="341" style="fill:rgb(0%,0%,0%);fill-opacity:0.101961;stroke:none;"/>
  </g>
</mask>
<clipPath id="clip1">
  <rect width="327" height="341"/>
</clipPath>
<g id="surface6" clip-path="url(#clip1)">
<path style=" stroke:none;fill-rule:nonzero;fill:rgb(0%,0%,0%);fill-opacity:1;" d="M 194.5 315.308594 C 194.5 311.300781 167.859375 308.058594 135 308.058594 C 102.140625 308.058594 75.5 311.300781 75.5 315.308594 C 75.5 319.3125 102.140625 322.558594 135 322.558594 C 167.859375 322.558594 194.5 319.3125 194.5 315.308594 Z M 194.5 315.308594 "/>
</g>
<mask id="mask1">
  <g filter="url(#alpha)">
<rect x="0" y="0" width="327" height="341" style="fill:rgb(0%,0%,0%);fill-opacity:0.101961;stroke:none;"/>
  </g>
</mask>
<clipPath id="clip2">
  <rect width="327" height="341"/>
</clipPath>
<g id="surface9" clip-path="url(#clip2)">
<path style=" stroke:none;fill-rule:nonzero;fill:rgb(0%,0%,0%);fill-opacity:1;" d="M 132.75 97.308594 C 132.75 97.308594 131.75 108.808594 129.25 109.308594 C 126.75 109.808594 134.75 129.808594 134.75 129.808594 L 146.75 129.808594 L 156.25 127.308594 L 151.75 116.308594 C 151.75 116.308594 145.75 108.308594 150.25 101.808594 C 154.75 95.308594 132.75 97.308594 132.75 97.308594 Z M 132.75 97.308594 "/>
</g>
<mask id="mask2">
  <g filter="url(#alpha)">
<rect x="0" y="0" width="327" height="341" style="fill:rgb(0%,0%,0%);fill-opacity:0.101961;stroke:none;"/>
  </g>
</mask>
<clipPath id="clip3">
  <rect width="327" height="341"/>
</clipPath>
<g id="surface12" clip-path="url(#clip3)">
<path style=" stroke:none;fill-rule:nonzero;fill:rgb(0%,0%,0%);fill-opacity:1;" d="M 108.5 130.058594 L 108 130.058594 C 108 130.058594 100.25 120.808594 98.75 133.308594 C 97.25 145.808594 92.25 187.308594 105.25 188.808594 C 118.25 190.308594 127.5 182.558594 127.5 182.558594 C 127.5 182.558594 137 168.058594 133.5 168.058594 C 131.804688 168.058594 127.199219 167.296875 123 167.558594 C 118.519531 167.835938 114.492188 169.097656 114.75 167.808594 C 115.25 165.308594 122.5 133.558594 108.5 130.058594 Z M 108.5 130.058594 "/>
</g>
<mask id="mask3">
  <g filter="url(#alpha)">
<rect x="0" y="0" width="327" height="341" style="fill:rgb(0%,0%,0%);fill-opacity:0.101961;stroke:none;"/>
  </g>
</mask>
<clipPath id="clip4">
  <rect width="327" height="341"/>
</clipPath>
<g id="surface15" clip-path="url(#clip4)">
<path style=" stroke:none;fill-rule:nonzero;fill:rgb(0%,0%,0%);fill-opacity:1;" d="M 327.117188 84.113281 C 326.925781 90.101562 325.46875 94.898438 322.746094 98.507812 C 320.023438 102.117188 316.789062 103.921875 313.046875 103.921875 C 309.996094 103.921875 307.320312 102.15625 305.023438 98.621094 C 302.726562 95.089844 301.578125 89.65625 301.578125 82.320312 C 301.578125 80.699219 301.617188 79.152344 301.695312 77.6875 C 301.769531 76.21875 301.867188 74.828125 301.984375 73.515625 L 304.011719 54.460938 L 290.632812 54.460938 C 288.316406 78.554688 286.414062 92.886719 284.925781 97.464844 C 283.441406 102.039062 280.921875 104.328125 277.371094 104.328125 C 275.765625 104.289062 274.238281 103.648438 273.082031 102.53125 C 271.730469 101.332031 270.988281 99.589844 271.054688 97.78125 C 271.054688 96.007812 272.457031 93.527344 275.253906 90.339844 C 278.054688 87.15625 279.609375 84.25 279.917969 81.625 L 283.390625 54.460938 L 277.773438 54.460938 C 276.191406 54.472656 274.632812 54.859375 273.230469 55.589844 C 271.9375 56.183594 270.8125 57.089844 269.957031 58.226562 L 267.464844 61.933594 L 265.4375 61.933594 C 267.332031 56.066406 269.65625 51.652344 272.417969 48.699219 C 275.175781 45.746094 278.351562 44.269531 281.945312 44.269531 L 326.191406 44.269531 L 326.191406 54.460938 L 311.25 54.460938 C 310.785156 59.09375 310.429688 63.726562 310.179688 68.363281 C 309.925781 72.996094 309.800781 77.648438 309.800781 82.320312 C 309.800781 85.484375 310.535156 88.054688 312.003906 90.023438 C 313.46875 91.992188 315.304688 92.976562 317.503906 92.976562 C 318.855469 92.976562 320.273438 92.425781 321.761719 91.324219 C 323.191406 90.324219 324.109375 88.746094 324.28125 87.011719 C 324.394531 86.160156 324.484375 85.496094 324.542969 85.011719 C 324.597656 84.53125 324.628906 84.230469 324.628906 84.113281 Z M 327.117188 84.113281 "/>
</g>
</defs>
<g id="surface1">
<path style=" stroke:none;fill-rule:nonzero;fill:rgb(24.705882%,23.921569%,33.72549%);fill-opacity:1;" d="M 310 317.808594 C 310 330.648438 240.605469 341.058594 155 341.058594 C 69.394531 341.058594 0 330.648438 0 317.808594 C 0 308.714844 34.785156 300.839844 85.480469 297.023438 C 106.386719 295.441406 130.003906 294.558594 155 294.558594 C 165.273438 294.558594 175.316406 294.707031 185.023438 294.992188 C 256.261719 297.089844 310 306.507812 310 317.808594 Z M 310 317.808594 "/>
<use xlink:href="#surface6" mask="url(#mask0)"/>
<path style=" stroke:none;fill-rule:nonzero;fill:rgb(24.705882%,23.921569%,33.72549%);fill-opacity:1;" d="M 191 260.558594 C 191 227.417969 165.816406 200.558594 134.75 200.558594 C 103.683594 200.558594 78.5 227.417969 78.5 260.558594 C 78.5 293.695312 103.683594 320.558594 134.75 320.558594 C 165.816406 320.558594 191 293.695312 191 260.558594 Z M 191 260.558594 "/>
<path style=" stroke:none;fill-rule:nonzero;fill:rgb(0%,72.54902%,55.686275%);fill-opacity:1;" d="M 117.5 296.058594 L 152.5 296.058594 L 152.5 328.058594 L 117.5 328.058594 Z M 117.5 296.058594 "/>
<path style=" stroke:none;fill-rule:nonzero;fill:rgb(34.117647%,35.294118%,53.72549%);fill-opacity:1;" d="M 198.25 303.808594 L 196.25 314.808594 L 209.25 316.808594 L 217.75 311.808594 L 217.25 303.808594 Z M 198.25 303.808594 "/>
<path style=" stroke:none;fill-rule:nonzero;fill:rgb(62.745098%,38.039216%,41.568627%);fill-opacity:1;" d="M 132.75 97.308594 C 132.75 97.308594 131.75 108.808594 129.25 109.308594 C 126.75 109.808594 134.75 129.808594 134.75 129.808594 L 146.75 129.808594 L 156.25 127.308594 L 151.75 116.308594 C 151.75 116.308594 145.75 108.308594 150.25 101.808594 C 154.75 95.308594 132.75 97.308594 132.75 97.308594 Z M 132.75 97.308594 "/>
<use xlink:href="#surface9" mask="url(#mask1)"/>
<path style=" stroke:none;fill-rule:nonzero;fill:rgb(18.431373%,18.039216%,25.490196%);fill-opacity:1;" d="M 107.75 185.308594 C 107.75 185.308594 94.75 210.308594 105.25 215.308594 C 115.75 220.308594 118.25 219.808594 118.25 221.308594 C 118.25 222.808594 116.25 222.308594 117.25 224.808594 C 118.25 227.308594 115.25 237.308594 118.25 243.308594 C 121.25 249.308594 120.25 253.808594 120.25 253.808594 C 120.25 253.808594 120.25 254.308594 121.25 256.308594 C 122.25 258.308594 122.75 259.808594 122.25 260.808594 C 121.75 261.808594 118.75 268.308594 121.75 269.808594 C 124.75 271.308594 140.25 272.308594 141.75 269.808594 C 143.25 267.308594 140.25 265.808594 141.75 264.308594 C 143.25 262.808594 144.25 262.308594 143.25 261.308594 C 142.25 260.308594 141.25 247.808594 141.25 247.808594 C 141.25 247.808594 143.75 233.308594 142.75 231.308594 C 141.75 229.308594 140.25 227.308594 141.25 225.808594 C 142.25 224.308594 143.25 224.808594 143.75 222.808594 C 144.25 220.808594 145.25 216.308594 145.25 216.308594 L 150.75 215.808594 L 163.75 218.308594 C 163.75 218.308594 178.25 234.308594 194.25 239.308594 C 194.25 239.308594 198.75 243.808594 200.25 243.808594 C 201.75 243.808594 201.75 243.808594 201.25 244.808594 C 200.75 245.808594 199.25 245.808594 200.25 246.808594 C 201.25 247.808594 202.75 246.308594 201.75 247.808594 C 200.75 249.308594 199.75 249.308594 200.75 250.308594 C 201.75 251.308594 200.25 256.808594 200.25 257.308594 C 200.25 257.808594 195.75 304.808594 197.25 305.808594 C 198.75 306.808594 219.75 309.808594 221.25 305.808594 C 222.75 301.808594 220.25 296.808594 220.25 296.808594 C 220.25 296.808594 227.75 236.808594 225.75 232.808594 C 223.75 228.808594 216.75 210.808594 179.25 199.308594 C 179.25 199.308594 168.75 197.308594 168.75 195.808594 C 168.75 194.308594 167.75 184.808594 165.75 184.308594 C 163.75 183.808594 152.25 183.308594 152.25 183.308594 L 137.75 187.808594 L 117.75 184.308594 Z M 107.75 185.308594 "/>
<path style=" stroke:none;fill-rule:nonzero;fill:rgb(18.431373%,18.039216%,25.490196%);fill-opacity:1;" d="M 125.25 269.308594 L 122.75 278.308594 C 122.75 278.308594 120.75 292.808594 123.25 296.308594 C 125.214844 299.054688 128.71875 302.421875 135.222656 303.011719 C 138.976562 303.355469 142.464844 301.046875 143.613281 297.453125 C 143.6875 297.246094 143.734375 297.027344 143.75 296.808594 C 143.75 295.808594 142.25 283.808594 142.25 283.808594 L 139.75 271.308594 L 139.25 267.808594 Z M 125.25 269.308594 "/>
<path style=" stroke:none;fill-rule:nonzero;fill:rgb(18.431373%,18.039216%,25.490196%);fill-opacity:1;" d="M 198.25 312.308594 C 198.25 312.308594 195.75 309.808594 195.25 312.308594 C 194.75 314.808594 192.75 325.308594 196.25 325.808594 C 199.75 326.308594 233.25 331.308594 236.75 329.308594 C 240.25 327.308594 246.75 324.308594 242.75 322.808594 C 238.75 321.308594 227.25 316.808594 227.25 316.808594 C 227.25 316.808594 220.75 308.308594 219.75 307.808594 C 218.75 307.308594 213.25 308.308594 210.75 310.308594 C 208.25 312.308594 198.25 312.308594 198.25 312.308594 Z M 198.25 312.308594 "/>
<path style=" stroke:none;fill-rule:nonzero;fill:rgb(62.745098%,38.039216%,41.568627%);fill-opacity:1;" d="M 160.25 92.308594 C 160.25 100.867188 153.308594 107.808594 144.75 107.808594 C 136.191406 107.808594 129.25 100.867188 129.25 92.308594 C 129.25 83.746094 136.191406 76.808594 144.75 76.808594 C 153.308594 76.808594 160.25 83.746094 160.25 92.308594 Z M 160.25 92.308594 "/>
<path style=" stroke:none;fill-rule:nonzero;fill:rgb(34.117647%,35.294118%,53.72549%);fill-opacity:1;" d="M 143.25 127.308594 L 137.25 120.808594 L 130.597656 107.808594 C 130.597656 107.808594 125.75 106.308594 124.75 108.808594 C 123.75 111.308594 105.75 119.308594 105.75 119.308594 C 105.75 119.308594 110.25 161.308594 108.25 165.308594 C 106.25 169.308594 102.75 185.308594 105.75 186.808594 C 108.75 188.308594 122.75 186.808594 127.25 188.808594 C 131.75 190.808594 144.75 190.808594 148.25 188.308594 C 151.75 185.808594 152.75 183.808594 156.25 185.308594 C 159.230469 186.582031 166.195312 142.925781 168.199219 129.917969 C 168.546875 127.6875 167.59375 125.457031 165.746094 124.160156 C 161.261719 121.015625 153.179688 115.589844 151.75 116.308594 C 149.75 117.308594 143.25 127.308594 143.25 127.308594 Z M 143.25 127.308594 "/>
<path style=" stroke:none;fill-rule:nonzero;fill:rgb(34.117647%,35.294118%,53.72549%);fill-opacity:1;" d="M 164.75 125.308594 C 167.15625 125.90625 168.929688 127.941406 169.207031 130.40625 L 173.25 166.808594 C 173.25 166.808594 163.25 188.308594 158.25 173.808594 C 153.25 159.308594 164.75 125.308594 164.75 125.308594 Z M 164.75 125.308594 "/>
<path style=" stroke:none;fill-rule:nonzero;fill:rgb(34.117647%,35.294118%,53.72549%);fill-opacity:1;" d="M 163.75 170.308594 L 174.75 167.308594 C 174.75 167.308594 176.75 181.308594 178.75 181.308594 C 180.75 181.308594 171.75 189.308594 167.25 188.308594 C 162.75 187.308594 156.25 183.808594 155.75 181.308594 C 155.25 178.808594 160.25 168.308594 160.25 168.308594 Z M 163.75 170.308594 "/>
<path style=" stroke:none;fill-rule:nonzero;fill:rgb(18.431373%,18.039216%,25.490196%);fill-opacity:1;" d="M 133.050781 98.992188 C 134.101562 96.667969 133.921875 93.957031 134.792969 91.558594 C 135.738281 88.957031 137.84375 86.945312 140.492188 86.121094 C 143.136719 85.300781 146.011719 85.761719 148.269531 87.371094 C 149.390625 88.167969 150.511719 89.292969 151.878906 89.140625 C 153.355469 88.976562 154.667969 87.332031 156.023438 87.933594 C 157.523438 88.601562 157.117188 91.292969 158.640625 91.914062 C 159.441406 92.242188 160.386719 91.738281 160.847656 91.003906 C 161.253906 90.238281 161.472656 89.386719 161.492188 88.515625 C 161.703125 86.386719 161.890625 84.128906 160.964844 82.195312 C 160.578125 81.539062 160.238281 80.855469 159.953125 80.148438 C 159.789062 79.492188 159.726562 78.8125 159.757812 78.132812 C 159.75 75.625 159.566406 73.011719 158.304688 70.847656 C 156.90625 68.441406 154.320312 66.90625 151.621094 66.234375 C 148.921875 65.5625 146.09375 65.667969 143.320312 65.902344 C 138.738281 66.289062 133.960938 67.121094 130.351562 69.96875 C 129.859375 70.328125 129.4375 70.769531 129.105469 71.277344 C 128.789062 71.882812 128.5625 72.53125 128.441406 73.199219 C 127.660156 76.378906 126.488281 79.445312 124.957031 82.339844 C 124.21875 83.5625 123.617188 84.867188 123.160156 86.222656 C 122.777344 87.597656 122.800781 89.167969 123.601562 90.351562 C 124.253906 91.316406 125.296875 91.828125 126.117188 92.617188 C 126.929688 93.398438 127.308594 94.898438 128.210938 95.488281 C 128.996094 96.003906 129.933594 95.640625 130.734375 96.1875 C 131.765625 96.890625 131.839844 98.429688 133.050781 98.992188 Z M 133.050781 98.992188 "/>
<path style=" stroke:none;fill-rule:nonzero;fill:rgb(94.901961%,94.901961%,94.901961%);fill-opacity:1;" d="M 145.75 134.808594 L 147.25 131.808594 C 147.25 131.808594 169.25 138.308594 173.75 144.308594 C 173.75 144.308594 184.75 137.308594 190.75 138.308594 L 196.75 139.308594 L 178.25 155.808594 L 154.75 153.808594 Z M 145.75 134.808594 "/>
<path style=" stroke:none;fill-rule:nonzero;fill:rgb(0%,72.54902%,55.686275%);fill-opacity:1;" d="M 144.75 131.808594 L 124.25 160.308594 L 153.75 174.808594 C 153.75 174.808594 156.507812 176.308594 158.628906 174.808594 L 178.25 165.808594 L 196.75 139.308594 L 178.25 148.808594 C 178.25 148.808594 176.25 144.808594 172.25 146.808594 Z M 144.75 131.808594 "/>
<path style=" stroke:none;fill-rule:nonzero;fill:rgb(62.745098%,38.039216%,41.568627%);fill-opacity:1;" d="M 176.25 182.308594 L 180.25 171.808594 C 180.25 171.808594 189.25 160.308594 184.25 154.808594 C 179.25 149.308594 173.75 170.808594 173.75 170.808594 Z M 176.25 182.308594 "/>
<path style=" stroke:none;fill-rule:nonzero;fill:rgb(62.745098%,38.039216%,41.568627%);fill-opacity:1;" d="M 130.097656 180.632812 L 138.828125 173.554688 C 138.828125 173.554688 152.382812 168.121094 150.816406 160.855469 C 149.25 153.589844 133.707031 169.429688 133.707031 169.429688 Z M 130.097656 180.632812 "/>
<use xlink:href="#surface12" mask="url(#mask2)"/>
<path style=" stroke:none;fill-rule:nonzero;fill:rgb(34.117647%,35.294118%,53.72549%);fill-opacity:1;" d="M 107.75 120.308594 L 105.75 119.308594 C 105.75 119.308594 97.75 120.808594 96.25 133.308594 C 94.75 145.808594 89.75 187.308594 102.75 188.808594 C 115.75 190.308594 133.25 186.808594 133.25 186.808594 C 133.25 186.808594 136.75 167.808594 133.25 167.808594 C 129.75 167.808594 111.75 170.308594 112.25 167.808594 C 112.75 165.308594 121.75 123.808594 107.75 120.308594 Z M 107.75 120.308594 "/>
<path style=" stroke:none;fill-rule:nonzero;fill:rgb(34.117647%,35.294118%,53.72549%);fill-opacity:1;" d="M 169 176.558594 L 174.511719 168.105469 L 178 182.058594 L 169 186.058594 Z M 169 176.558594 "/>
<path style=" stroke:none;fill-rule:nonzero;fill:rgb(94.901961%,94.901961%,94.901961%);fill-opacity:1;" d="M 69.238281 42.558594 C 69.238281 50.011719 63.191406 56.058594 55.738281 56.058594 C 48.28125 56.058594 42.238281 50.011719 42.238281 42.558594 C 42.238281 35.101562 48.28125 29.058594 55.738281 29.058594 C 63.191406 29.058594 69.238281 35.101562 69.238281 42.558594 Z M 69.238281 42.558594 "/>
<path style=" stroke:none;fill-rule:nonzero;fill:rgb(94.901961%,94.901961%,94.901961%);fill-opacity:1;" d="M 39.738281 143.058594 L 71.738281 143.058594 L 71.738281 175.058594 L 39.738281 175.058594 Z M 39.738281 143.058594 "/>
<path style=" stroke:none;fill-rule:nonzero;fill:rgb(94.901961%,94.901961%,94.901961%);fill-opacity:1;" d="M 186 0 L 194.097656 14.027344 L 202.199219 28.058594 L 169.800781 28.058594 L 177.902344 14.027344 Z M 186 0 "/>
<path style=" stroke:none;fill-rule:nonzero;fill:rgb(0%,72.54902%,55.686275%);fill-opacity:1;" d="M 327.117188 84.113281 C 326.925781 90.101562 325.46875 94.898438 322.746094 98.507812 C 320.023438 102.117188 316.789062 103.921875 313.046875 103.921875 C 309.996094 103.921875 307.320312 102.15625 305.023438 98.621094 C 302.726562 95.089844 301.578125 89.65625 301.578125 82.320312 C 301.578125 80.699219 301.617188 79.152344 301.695312 77.6875 C 301.769531 76.21875 301.867188 74.828125 301.984375 73.515625 L 304.011719 54.460938 L 290.632812 54.460938 C 288.316406 78.554688 286.414062 92.886719 284.925781 97.464844 C 283.441406 102.039062 280.921875 104.328125 277.371094 104.328125 C 275.765625 104.289062 274.238281 103.648438 273.082031 102.53125 C 271.730469 101.332031 270.988281 99.589844 271.054688 97.78125 C 271.054688 96.007812 272.457031 93.527344 275.253906 90.339844 C 278.054688 87.15625 279.609375 84.25 279.917969 81.625 L 283.390625 54.460938 L 277.773438 54.460938 C 276.191406 54.472656 274.632812 54.859375 273.230469 55.589844 C 271.9375 56.183594 270.8125 57.089844 269.957031 58.226562 L 267.464844 61.933594 L 265.4375 61.933594 C 267.332031 56.066406 269.65625 51.652344 272.417969 48.699219 C 275.175781 45.746094 278.351562 44.269531 281.945312 44.269531 L 326.191406 44.269531 L 326.191406 54.460938 L 311.25 54.460938 C 310.785156 59.09375 310.429688 63.726562 310.179688 68.363281 C 309.925781 72.996094 309.800781 77.648438 309.800781 82.320312 C 309.800781 85.484375 310.535156 88.054688 312.003906 90.023438 C 313.46875 91.992188 315.304688 92.976562 317.503906 92.976562 C 318.855469 92.976562 320.273438 92.425781 321.761719 91.324219 C 323.191406 90.324219 324.109375 88.746094 324.28125 87.011719 C 324.394531 86.160156 324.484375 85.496094 324.542969 85.011719 C 324.597656 84.53125 324.628906 84.230469 324.628906 84.113281 Z M 327.117188 84.113281 "/>
<use xlink:href="#surface15" mask="url(#mask3)"/>
<path style=" stroke:none;fill-rule:nonzero;fill:rgb(0%,72.54902%,55.686275%);fill-opacity:1;" d="M 327.117188 82.304688 C 326.925781 88.289062 325.46875 93.085938 322.746094 96.695312 C 320.023438 100.304688 316.789062 102.113281 313.046875 102.113281 C 309.996094 102.113281 307.320312 100.34375 305.023438 96.8125 C 302.726562 93.28125 301.578125 87.84375 301.578125 80.507812 C 301.578125 78.886719 301.617188 77.34375 301.695312 75.875 C 301.769531 74.410156 301.867188 73.019531 301.984375 71.707031 L 304.011719 52.652344 L 290.632812 52.652344 C 288.316406 76.746094 286.414062 91.078125 284.925781 95.65625 C 283.441406 100.230469 280.921875 102.515625 277.371094 102.515625 C 275.765625 102.476562 274.238281 101.835938 273.082031 100.722656 C 271.730469 99.523438 270.988281 97.78125 271.054688 95.972656 C 271.054688 94.199219 272.457031 91.71875 275.253906 88.53125 C 278.054688 85.34375 279.609375 82.441406 279.917969 79.816406 L 283.390625 52.652344 L 277.773438 52.652344 C 276.191406 52.660156 274.632812 53.050781 273.230469 53.78125 C 271.9375 54.375 270.8125 55.28125 269.957031 56.417969 L 267.464844 60.125 L 265.4375 60.125 C 267.332031 54.253906 269.65625 49.84375 272.417969 46.890625 C 275.175781 43.9375 278.351562 42.460938 281.945312 42.460938 L 326.191406 42.460938 L 326.191406 52.652344 L 311.25 52.652344 C 310.785156 57.285156 310.429688 61.917969 310.179688 66.550781 C 309.925781 71.183594 309.800781 75.835938 309.800781 80.507812 C 309.800781 83.675781 310.535156 86.242188 312.003906 88.210938 C 313.46875 90.179688 315.304688 91.167969 317.503906 91.164062 C 318.855469 91.164062 320.273438 90.617188 321.761719 89.515625 C 323.191406 88.511719 324.109375 86.9375 324.28125 85.199219 C 324.394531 84.351562 324.484375 83.6875 324.542969 83.203125 C 324.597656 82.71875 324.628906 82.421875 324.628906 82.304688 Z M 327.117188 82.304688 "/>
</g>
</svg>
